<svg xmlns="http://www.w3.org/2000/svg" width="19" height="23" viewBox="0 0 19 23" fill="none">
    <path d="M11.1979 1.35693H3.19788C2.66744 1.35693 2.15874 1.56765 1.78366 1.94272C1.40859 2.31779 1.19788 2.8265 1.19788 3.35693V19.3569C1.19788 19.8874 1.40859 20.3961 1.78366 20.7711C2.15874 21.1462 2.66744 21.3569 3.19788 21.3569H15.1979C15.7283 21.3569 16.237 21.1462 16.6121 20.7711C16.9872 20.3961 17.1979 19.8874 17.1979 19.3569V7.35693M11.1979 1.35693L17.1979 7.35693M11.1979 1.35693V7.35693H17.1979M13.1979 12.3569H5.19788M13.1979 16.3569H5.19788M7.19788 8.35693H5.19788" stroke="#9980D2" stroke-width="2" stroke-linecap="round" stroke-linejoin="round"/>
</svg>
