<svg xmlns="http://www.w3.org/2000/svg" width="22" height="22" viewBox="0 0 22 22" fill="none">
    <path d="M2.17038 0.0859565C1.64605 0.227783 1.26355 0.451268 0.859556 0.859557C0.563009 1.15181 0.455565 1.29793 0.30944 1.59018C-0.00429775 2.23055 -0.00429778 2.22195 0.00859556 4.98113L0.0214889 7.42657L0.150422 7.61137C0.339525 7.88213 0.623178 8.01536 1.00568 8.01106C1.34521 8.01106 1.56869 7.92081 1.77069 7.70592C1.99847 7.46525 1.99847 7.49533 2.01996 5.00692L2.04145 2.68611L2.16178 2.48412C2.23914 2.35089 2.35089 2.23914 2.48412 2.16178L2.68611 2.04145L5.00691 2.01996C7.49533 1.99847 7.46524 1.99847 7.70592 1.77069C7.92081 1.56869 8.01106 1.34521 8.01106 1.00568C8.01536 0.623179 7.88213 0.339526 7.61137 0.150423L7.42657 0.0214898L4.95104 0.0128942C2.63884 0.00429868 2.44973 0.00859646 2.17038 0.0859565Z" fill="#4BA9D0"/>
    <path d="M14.4878 0.0945512C13.9119 0.378205 13.8045 1.30653 14.2987 1.77069C14.5394 1.99847 14.5093 1.99847 16.9977 2.01996L19.3185 2.04145L19.5205 2.16178C19.6537 2.23914 19.7655 2.35089 19.8429 2.48412L19.9632 2.68611L19.9847 5.00691C20.0062 7.49533 20.0062 7.46525 20.234 7.70592C20.4359 7.92081 20.6594 8.01106 20.999 8.01106C21.3815 8.01536 21.6651 7.88213 21.8542 7.61137L21.9831 7.42657L21.996 4.99402C22.0089 2.24344 22.0089 2.24774 21.6909 1.59018C21.4416 1.07445 20.9302 0.563009 20.4145 0.313738C19.7655 0 19.7827 0 17.0794 0C14.707 0 14.6726 0 14.4878 0.0945512Z" fill="#4BA9D0"/>
    <path d="M4.53416 4.07859C4.43961 4.12157 4.31067 4.21182 4.24621 4.28059C3.99264 4.55135 3.99694 4.51697 3.99694 7.01398C3.99694 9.13708 4.00553 9.31759 4.07859 9.47661C4.17744 9.69579 4.41812 9.91068 4.62871 9.96655C4.87368 10.0353 9.15427 10.031 9.38635 9.96226C9.61414 9.89349 9.90638 9.60124 9.96655 9.38635C10.031 9.15857 10.031 4.85219 9.96655 4.62871C9.91068 4.41812 9.69579 4.17744 9.47661 4.07859C9.31759 4.00553 9.13708 3.99694 7.00538 3.99694C4.85649 3.99694 4.69318 4.00553 4.53416 4.07859ZM7.99387 7.99387H6.01689V6.01689H7.99387V7.99387Z" fill="#4BA9D0"/>
    <path d="M12.528 4.07859C12.3088 4.17744 12.094 4.41812 12.0381 4.62871C11.9693 4.87368 11.9736 9.15427 12.0424 9.38635C12.1111 9.61414 12.3905 9.89349 12.6183 9.96226C12.8504 10.031 17.131 10.0353 17.3759 9.96655C17.5865 9.91068 17.8272 9.69579 17.926 9.47661C17.9991 9.31759 18.0077 9.13708 18.0077 7.01398C18.0077 4.51697 18.012 4.55135 17.7584 4.28059C17.694 4.21182 17.565 4.12157 17.4705 4.07859C17.3115 4.00553 17.1481 3.99694 14.9993 3.99694C12.8676 3.99694 12.687 4.00553 12.528 4.07859ZM15.9877 7.99387H14.0108V6.01689H15.9877V7.99387Z" fill="#4BA9D0"/>
    <path d="M4.58143 12.051C4.37084 12.1283 4.17744 12.3088 4.07859 12.528C4.00553 12.687 3.99694 12.8504 3.99694 14.9993C3.99694 17.1481 4.00553 17.3115 4.07859 17.4705C4.12157 17.565 4.21182 17.694 4.28059 17.7584C4.55135 18.012 4.51697 18.0077 7.01398 18.0077C9.13708 18.0077 9.31759 17.9991 9.47661 17.926C9.69579 17.8272 9.91068 17.5822 9.97085 17.363C10.0009 17.2513 10.0138 16.439 10.0052 14.9004L9.99234 12.6097L9.872 12.4292C9.80754 12.3303 9.6743 12.1971 9.57546 12.1326L9.39495 12.0123L7.07415 12.0037C5.17453 11.9951 4.71896 12.0037 4.58143 12.051ZM7.99387 15.9877H6.01689V14.0108H7.99387V15.9877Z" fill="#4BA9D0"/>
    <path d="M12.6011 12.0381C12.4034 12.0983 12.1068 12.4034 12.0424 12.6183C11.9607 12.8933 11.9736 14.2257 12.0596 14.4319C12.2143 14.8102 12.5409 15.0078 13.0008 15.0078C13.4606 15.0078 13.7873 14.8102 13.942 14.4319C14.0494 14.1827 14.0366 12.7644 13.9291 12.528C13.8303 12.3088 13.5896 12.094 13.379 12.0381C13.1813 11.9822 12.7945 11.9822 12.6011 12.0381Z" fill="#4BA9D0"/>
    <path d="M15.5838 12.0553C15.2098 12.1885 14.9993 12.5237 14.9993 13.0008C14.9993 13.3446 15.0895 13.5767 15.2829 13.7615C15.5193 13.985 15.6568 14.0108 16.5121 14.0108C17.1868 14.0108 17.3244 13.9979 17.4705 13.9291C17.6811 13.8303 17.853 13.654 17.9389 13.4435C18.0335 13.22 18.0249 12.7472 17.926 12.528C17.8272 12.3088 17.5865 12.094 17.3759 12.0381C17.131 11.9693 15.79 11.9822 15.5838 12.0553Z" fill="#4BA9D0"/>
    <path d="M0.679049 14.0237C0.412587 14.101 0.201996 14.2686 0.0902534 14.4964C0 14.6769 0 14.7328 0 17.088C0 19.787 0 19.7827 0.30944 20.4145C0.567307 20.9302 1.07445 21.4416 1.59018 21.6909C2.24774 22.0089 2.24344 22.0089 4.99402 21.996L7.42657 21.9831L7.61137 21.8542C7.88213 21.6651 8.01536 21.3815 8.01106 20.999C8.01106 20.6594 7.92081 20.4359 7.70592 20.234C7.46525 20.0062 7.49533 20.0062 5.00691 19.9847L2.68611 19.9632L2.48412 19.8429C2.35089 19.7655 2.23914 19.6537 2.16178 19.5205L2.04145 19.3185L2.01996 16.9977C2.00277 15.2141 1.98557 14.6468 1.9426 14.548C1.75349 14.1182 1.18619 13.8818 0.679049 14.0237Z" fill="#4BA9D0"/>
    <path d="M20.7368 14.0065C20.4359 14.0838 20.1738 14.2987 20.062 14.548C20.0191 14.6468 20.0019 15.2141 19.9847 16.9977L19.9632 19.3185L19.8429 19.5205C19.7655 19.6537 19.6537 19.7655 19.5205 19.8429L19.3185 19.9632L16.9977 19.9847C14.5093 20.0062 14.5394 20.0062 14.2987 20.234C14.0838 20.4359 13.9936 20.6594 13.9936 20.999C13.9893 21.3815 14.1225 21.6651 14.3933 21.8542L14.5781 21.9831L17.0106 21.996C19.7612 22.0089 19.7569 22.0089 20.4145 21.6909C20.9302 21.4416 21.4416 20.9302 21.6909 20.4145C22.0089 19.7569 22.0089 19.7612 21.996 17.0106L21.9831 14.5781L21.8542 14.3933C21.7812 14.2858 21.6436 14.1655 21.5319 14.1096C21.3213 14.0022 20.9388 13.9506 20.7368 14.0065Z" fill="#4BA9D0"/>
    <path d="M13.6583 16.0307C13.4349 16.0995 13.2372 16.2542 13.1168 16.4519C13.018 16.6281 13.0008 16.7012 13.0008 16.9977C13.0008 17.4146 13.1125 17.651 13.4005 17.8573L13.5896 17.9862L15.3989 17.9991C16.6324 18.0077 17.2642 17.9991 17.3759 17.9647C17.5865 17.9046 17.8315 17.6854 17.926 17.4705C18.0335 17.2384 18.0335 16.757 17.926 16.525C17.8229 16.3015 17.6424 16.1339 17.4103 16.0522C17.2513 15.9963 16.9461 15.9877 15.4978 15.992C14.5523 15.992 13.7228 16.0092 13.6583 16.0307Z" fill="#4BA9D0"/>
</svg>
