<svg xmlns="http://www.w3.org/2000/svg" width="64" height="40" viewBox="0 0 64 40" fill="none">
    <path d="M45.2573 0.566763C47.2796 -0.209509 49.5717 0.404662 50.9349 2.08806L62.3274 16.1566C63.6906 17.84 63.8148 20.2098 62.635 22.0264L52.7755 37.2088C51.5957 39.0254 49.3804 39.8758 47.288 39.3152L29.802 34.6298C27.7097 34.0692 26.2163 32.225 26.103 30.0619L25.1555 11.9838C25.0422 9.82067 26.3346 7.83052 28.3568 7.05425L45.2573 0.566763Z" fill="white"/>
    <path fill-rule="evenodd" clip-rule="evenodd" d="M0.75 9.00003C0.75 7.2051 2.20507 5.75003 4 5.75003H23.1818C24.9767 5.75003 26.4318 7.2051 26.4318 9.00003V13.6148C26.6726 13.5579 26.9237 13.5278 27.1818 13.5278H30.5314C31.397 13.5278 32.2269 13.8731 32.837 14.4872L36.3056 17.9785C36.9105 18.5874 37.25 19.4108 37.25 20.2691V25.2222C37.25 27.0172 35.7949 28.4723 34 28.4723H33.434C33.8946 29.2444 34.1591 30.1475 34.1591 31.1111C34.1591 33.9416 31.8773 36.25 29.0455 36.25C26.2136 36.25 23.9318 33.9416 23.9318 31.1111C23.9318 30.1475 24.1963 29.2444 24.6569 28.4723H13.3431C13.8037 29.2444 14.0682 30.1475 14.0682 31.1111C14.0682 33.9416 11.7864 36.25 8.95455 36.25C6.1227 36.25 3.84091 33.9416 3.84091 31.1111C3.84091 30.1475 4.10539 29.2444 4.56601 28.4723H4C2.20507 28.4723 0.75 27.0172 0.75 25.2223V9.00003ZM8.95455 28.4723C7.51874 28.4723 6.34091 29.646 6.34091 31.1111C6.34091 32.5762 7.51874 33.75 8.95455 33.75C10.3904 33.75 11.5682 32.5762 11.5682 31.1111C11.5682 29.646 10.3904 28.4723 8.95455 28.4723ZM23.9318 25.9723V9.00003C23.9318 8.58581 23.596 8.25003 23.1818 8.25003H4C3.58579 8.25003 3.25 8.58581 3.25 9.00003V25.2223C3.25 25.6365 3.58579 25.9723 4 25.9723H23.9318ZM26.4318 25.9723V16.7778C26.4318 16.3636 26.7676 16.0278 27.1818 16.0278H30.5314C30.7311 16.0278 30.9227 16.1075 31.0634 16.2492L34.5321 19.7405C34.6716 19.881 34.75 20.071 34.75 20.2691V25.2222C34.75 25.6365 34.4142 25.9723 34 25.9723H26.4318ZM29.0455 28.4723C27.6096 28.4723 26.4318 29.646 26.4318 31.1111C26.4318 32.5762 27.6096 33.75 29.0455 33.75C30.4813 33.75 31.6591 32.5762 31.6591 31.1111C31.6591 29.646 30.4813 28.4723 29.0455 28.4723Z" fill="#252627"/>
</svg>
