<svg xmlns="http://www.w3.org/2000/svg" width="62" height="39" viewBox="0 0 62 39" fill="none">
    <path d="M42 1.44355C43.547 0.550391 45.453 0.550391 47 1.44355L58.8875 8.3068C60.4345 9.19997 61.3875 10.8506 61.3875 12.6369V26.3634C61.3875 28.1498 60.4345 29.8004 58.8875 30.6936L47 37.5568C45.453 38.45 43.547 38.45 42 37.5568L30.1125 30.6936C28.5655 29.8004 27.6125 28.1498 27.6125 26.3634V12.6369C27.6125 10.8506 28.5655 9.19997 30.1125 8.3068L42 1.44355Z" fill="white"/>
    <path fill-rule="evenodd" clip-rule="evenodd" d="M3.36045 10.412L17.0794 19.7054C17.3334 19.8775 17.6666 19.8775 17.9206 19.7054L31.6396 10.412C31.3862 9.75361 30.7212 9.25018 29.9 9.25018H5.1C4.27879 9.25018 3.61383 9.75361 3.36045 10.412ZM31.75 13.3568L19.3228 21.7752C18.222 22.5209 16.778 22.5209 15.6772 21.7752L3.25 13.3568V29.0002C3.25 29.9215 4.0464 30.7502 5.1 30.7502H29.9C30.9536 30.7502 31.75 29.9215 31.75 29.0002V13.3568ZM0.75 11.0002C0.75 8.62151 2.7436 6.75018 5.1 6.75018H29.9C32.2564 6.75018 34.25 8.62151 34.25 11.0002V29.0002C34.25 31.3789 32.2564 33.2502 29.9 33.2502H5.1C2.7436 33.2502 0.75 31.3789 0.75 29.0002V11.0002Z" fill="#252627"/>
</svg>
