<svg xmlns="http://www.w3.org/2000/svg" width="63" height="40" viewBox="0 0 63 40" fill="none">
    <path d="M63 20C63 31.0457 54.0457 40 43 40C31.9543 40 23 31.0457 23 20C23 8.9543 31.9543 0 43 0C54.0457 0 63 8.9543 63 20Z" fill="white" fill-opacity="0.8"/>
    <path fill-rule="evenodd" clip-rule="evenodd" d="M12.2119 3.90687C12.5679 3.70944 12.9977 3.69771 13.3639 3.87543L25.1434 9.59193L32.4237 5.55412C34.5899 4.3527 37.25 5.91921 37.25 8.39626V27.8222C37.25 29.0034 36.6092 30.0915 35.5763 30.6644L25.7881 36.0931C25.4321 36.2906 25.0023 36.3023 24.6361 36.1246L12.8566 30.4081L5.57631 34.4459C3.41012 35.6473 0.75 34.0808 0.75 31.6037V12.1778C0.75 10.9966 1.39079 9.9085 2.42369 9.33563L12.2119 3.90687ZM14.0682 28.2172L23.9318 33.004V11.7828L14.0682 6.99604V28.2172ZM11.5682 7.12266V28.2639L4.36376 32.2596C3.86388 32.5369 3.25 32.1754 3.25 31.6037V12.1778C3.25 11.9052 3.39787 11.6541 3.63623 11.5219L11.5682 7.12266ZM26.4318 11.7361V32.8773L34.3638 28.4781C34.6021 28.3459 34.75 28.0948 34.75 27.8222V8.39626C34.75 7.82463 34.1361 7.46313 33.6362 7.74038L26.4318 11.7361Z" fill="#252627"/>
</svg>
