<svg xmlns="http://www.w3.org/2000/svg" width="58" height="38" viewBox="0 0 58 38" fill="none">
    <path d="M17 14C17 8.47715 21.4772 4 27 4H48C53.5228 4 58 8.47715 58 14V28C58 33.5228 53.5228 38 48 38H27C21.4772 38 17 33.5228 17 28V14Z" fill="white"/>
    <path fill-rule="evenodd" clip-rule="evenodd" d="M8.28571 0.75C8.97607 0.75 9.53571 1.30964 9.53571 2V6.65C9.53571 7.34036 8.97607 7.9 8.28571 7.9C7.59536 7.9 7.03571 7.34036 7.03571 6.65V2C7.03571 1.30964 7.59536 0.75 8.28571 0.75ZM14.5714 0.75C15.2618 0.75 15.8214 1.30964 15.8214 2V6.65C15.8214 7.34036 15.2618 7.9 14.5714 7.9C13.8811 7.9 13.3214 7.34036 13.3214 6.65V2C13.3214 1.30964 13.8811 0.75 14.5714 0.75ZM20.8571 0.75C21.5475 0.75 22.1071 1.30964 22.1071 2V6.65C22.1071 7.34036 21.5475 7.9 20.8571 7.9C20.1668 7.9 19.6071 7.34036 19.6071 6.65V2C19.6071 1.30964 20.1668 0.75 20.8571 0.75ZM0.75 14.85C0.75 13.0551 2.20508 11.6 4 11.6H28.7143C30.7074 11.6 32.6223 12.3808 34.0368 13.776C35.4518 15.1718 36.25 17.0686 36.25 19.05C36.25 21.0314 35.4518 22.9282 34.0368 24.324C32.6223 25.7192 30.7074 26.5 28.7143 26.5H28.3929V26.8C28.3929 28.7814 27.5947 30.6782 26.1796 32.074C24.7651 33.4692 22.8502 34.25 20.8571 34.25H8.28571C6.29261 34.25 4.37775 33.4692 2.96325 32.074C1.54817 30.6782 0.75 28.7814 0.75 26.8V14.85ZM28.3929 24H28.7143C30.0553 24 31.3381 23.4744 32.2812 22.5441C33.2237 21.6145 33.75 20.3572 33.75 19.05C33.75 17.7428 33.2237 16.4855 32.2812 15.5559C31.3381 14.6256 30.0553 14.1 28.7143 14.1H28.3929V24ZM25.8929 14.1V26.8C25.8929 28.1072 25.3665 29.3645 24.424 30.2941C23.4809 31.2244 22.1982 31.75 20.8571 31.75H8.28571C6.94466 31.75 5.66194 31.2244 4.71884 30.2941C3.77632 29.3645 3.25 28.1072 3.25 26.8V14.85C3.25 14.4358 3.58579 14.1 4 14.1H25.8929Z" fill="#252627"/>
</svg>
