<svg xmlns="http://www.w3.org/2000/svg" width="65" height="38" viewBox="0 0 65 38" fill="none">
    <path d="M65 19.5C65 29.7173 56.7173 38 46.5 38C36.2827 38 28 29.7173 28 19.5C28 9.28273 36.2827 1 46.5 1C56.7173 1 65 9.28273 65 19.5Z" fill="white" fill-opacity="0.8"/>
    <path d="M16.2959 0.0791172C13.0512 0.44052 9.62578 1.86445 6.98809 3.94612C6.24375 4.5316 4.70449 6.06394 4.08301 6.83012C2.39199 8.91902 1.1418 11.4416 0.505859 14.0293C0.0939453 15.7062 0.0361328 16.2627 0.0361328 18.4601C0.0361328 20.0719 0.0650391 20.6429 0.166211 21.279C0.476953 23.18 1.02617 24.9436 1.81387 26.5772C2.04512 27.0614 2.24023 27.4879 2.24023 27.5313C2.24023 27.5674 1.73438 29.4033 1.12012 31.6079C0.375781 34.275 0 35.7279 0 35.9592C0 36.5808 0.419141 37 1.04063 37C1.27188 37 2.73887 36.6241 5.42715 35.8724L9.47402 34.7376L10.3918 35.1713C12.0973 35.9808 13.6727 36.4796 15.4938 36.7904C16.7512 37.0072 19.4033 37.0578 20.7402 36.8988C25.0256 36.3784 28.7617 34.5135 31.7969 31.391C34.6369 28.4637 36.393 24.8135 36.8916 20.8092C37.0361 19.631 37.0361 17.3614 36.8916 16.1832C36.4941 12.9884 35.3018 10.0249 33.3361 7.37222C32.6641 6.46871 30.8791 4.62556 30.0119 3.94612C27.367 1.86445 24.1223 0.5128 20.8125 0.100801C19.8225 -0.0220755 17.2787 -0.0365316 16.2959 0.0791172ZM20.5957 2.34873C23.5369 2.73904 26.3336 3.92444 28.6461 5.76759C31.4066 7.97938 33.4229 11.1019 34.2973 14.5352C34.926 17.0217 34.926 19.9707 34.2973 22.4572C32.4617 29.6852 25.965 34.7593 18.5361 34.7665C15.7611 34.7665 13.5426 34.2317 10.9844 32.9378C10.3701 32.627 9.79922 32.3741 9.71973 32.3741C9.59688 32.3741 3.49043 34.051 2.8834 34.2461C2.70273 34.3039 2.71719 34.2606 3.66387 30.8706C4.19141 28.9769 4.625 27.365 4.625 27.2855C4.625 27.206 4.35039 26.5844 4.01074 25.9122C3.18691 24.2425 2.76055 22.9631 2.40645 21.0983C2.30527 20.5417 2.27637 20.043 2.28359 18.4601C2.28359 16.6386 2.29805 16.4434 2.47871 15.511C4.15527 6.96745 12.0611 1.22115 20.5957 2.34873Z" fill="#252627"/>
    <path d="M12.6031 8.58653C11.9672 8.76723 11.548 9.0419 10.8182 9.74302C9.69805 10.8272 9.10547 11.7741 8.75859 13.0679C8.59961 13.6823 8.57793 13.9064 8.57793 14.9906C8.5707 15.9808 8.60684 16.3567 8.72969 16.9494C9.28613 19.5226 10.7459 22.103 12.8271 24.1702C17.1053 28.4203 22.8359 29.6997 26.2035 27.1482C26.8611 26.6422 27.9018 25.5291 28.133 25.0593C28.675 23.9823 28.6822 22.8402 28.1619 21.7488C27.9813 21.3802 27.7355 21.0766 27.0273 20.3683C26.2541 19.5876 26.0445 19.4214 25.582 19.1973C25.2857 19.06 24.91 18.9226 24.751 18.8937C24.2162 18.7998 23.3924 18.8431 22.9082 18.9949C22.3229 19.1756 21.9254 19.4286 21.275 20.0358C20.4584 20.7947 20.6318 20.8742 18.3771 18.6191C16.1152 16.3567 16.202 16.5446 16.9896 15.6917C17.8496 14.7521 18.1531 14.0437 18.1459 12.9812C18.1459 12.2439 17.9508 11.5789 17.5605 11.0007C17.1848 10.4369 15.8912 9.18646 15.3854 8.89734C14.6193 8.46366 13.4848 8.33355 12.6031 8.58653ZM14.0701 10.7694C14.3086 10.8561 15.6455 12.1572 15.8045 12.4535C15.949 12.7282 15.949 13.2775 15.8045 13.5522C15.7467 13.6679 15.5443 13.9064 15.3564 14.0871C14.865 14.5569 14.5688 15.005 14.3809 15.511C14.2436 15.8869 14.2219 16.0676 14.2508 16.5952C14.3014 17.7011 14.352 17.7734 16.7512 20.1803C19.2516 22.6885 19.3021 22.7246 20.5234 22.7246C21.2244 22.7246 21.3184 22.7101 21.7592 22.5005C22.0699 22.356 22.4385 22.0885 22.7709 21.7705C23.0672 21.4886 23.3852 21.2212 23.4791 21.1706C23.7176 21.0477 24.2813 21.0549 24.5414 21.1923C24.8377 21.3513 26.1385 22.6885 26.2252 22.927C26.4564 23.5341 26.2613 23.9967 25.4303 24.799C24.9316 25.2833 24.6354 25.5002 24.1873 25.7242C21.6725 26.9747 17.7918 25.7821 14.6916 22.8041C12.5959 20.7947 11.2807 18.5179 10.8832 16.1904C10.5508 14.2461 10.9482 12.8583 12.1984 11.5645C12.5453 11.2103 12.9428 10.8634 13.0801 10.8055C13.3764 10.6754 13.7883 10.661 14.0701 10.7694Z" fill="#252627"/>
</svg>
