<svg xmlns="http://www.w3.org/2000/svg" width="65" height="65" viewBox="0 0 65 65" fill="none">
    <path fill-rule="evenodd" clip-rule="evenodd" d="M32.5 13C36.0899 13 39 10.0899 39 6.5C39 2.91015 36.0899 0 32.5 0C28.9102 0 26 2.91015 26 6.5C26 10.0899 28.9102 13 32.5 13ZM32.5 9.17647C33.9782 9.17647 35.1765 7.97817 35.1765 6.5C35.1765 5.02183 33.9782 3.82353 32.5 3.82353C31.0218 3.82353 29.8235 5.02183 29.8235 6.5C29.8235 7.97817 31.0218 9.17647 32.5 9.17647Z" fill="white"/>
    <path fill-rule="evenodd" clip-rule="evenodd" d="M32.5 65C36.0899 65 39 62.0899 39 58.5C39 54.9101 36.0899 52 32.5 52C28.9102 52 26 54.9101 26 58.5C26 62.0899 28.9102 65 32.5 65ZM32.5 61.1765C33.9782 61.1765 35.1765 59.9782 35.1765 58.5C35.1765 57.0218 33.9782 55.8235 32.5 55.8235C31.0218 55.8235 29.8235 57.0218 29.8235 58.5C29.8235 59.9782 31.0218 61.1765 32.5 61.1765Z" fill="white"/>
    <path fill-rule="evenodd" clip-rule="evenodd" d="M52 32.5C52 36.0899 54.9101 39 58.5 39C62.0899 39 65 36.0899 65 32.5C65 28.9102 62.0899 26 58.5 26C54.9101 26 52 28.9102 52 32.5ZM55.8235 32.5C55.8235 33.9782 57.0218 35.1765 58.5 35.1765C59.9782 35.1765 61.1765 33.9782 61.1765 32.5C61.1765 31.0218 59.9782 29.8235 58.5 29.8235C57.0218 29.8235 55.8235 31.0218 55.8235 32.5Z" fill="white"/>
    <path fill-rule="evenodd" clip-rule="evenodd" d="M0 32.5C-1.56917e-07 36.0899 2.91015 39 6.5 39C10.0899 39 13 36.0899 13 32.5C13 28.9102 10.0899 26 6.5 26C2.91015 26 1.56917e-07 28.9102 0 32.5ZM3.82353 32.5C3.82353 33.9782 5.02183 35.1765 6.5 35.1765C7.97817 35.1765 9.17647 33.9782 9.17647 32.5C9.17647 31.0218 7.97817 29.8235 6.5 29.8235C5.02183 29.8235 3.82353 31.0218 3.82353 32.5Z" fill="white"/>
    <path fill-rule="evenodd" clip-rule="evenodd" d="M46.2886 46.2886C43.7502 48.827 43.7502 52.9426 46.2886 55.481C48.827 58.0194 52.9426 58.0194 55.481 55.481C58.0194 52.9426 58.0194 48.827 55.481 46.2886C52.9426 43.7502 48.827 43.7502 46.2886 46.2886ZM48.9922 48.9922C47.947 50.0375 47.947 51.7321 48.9922 52.7773C50.0375 53.8226 51.7321 53.8226 52.7773 52.7773C53.8226 51.7321 53.8226 50.0375 52.7773 48.9922C51.7321 47.947 50.0375 47.947 48.9922 48.9922Z" fill="white"/>
    <path fill-rule="evenodd" clip-rule="evenodd" d="M9.51903 9.51903C6.98062 12.0574 6.98062 16.173 9.51903 18.7114C12.0574 21.2498 16.173 21.2498 18.7114 18.7114C21.2498 16.173 21.2498 12.0574 18.7114 9.51903C16.173 6.98062 12.0574 6.98062 9.51903 9.51903ZM12.2227 12.2227C11.1774 13.2679 11.1774 14.9625 12.2227 16.0078C13.2679 17.053 14.9625 17.053 16.0078 16.0078C17.053 14.9625 17.053 13.2679 16.0078 12.2227C14.9625 11.1774 13.2679 11.1774 12.2227 12.2227Z" fill="white"/>
    <path fill-rule="evenodd" clip-rule="evenodd" d="M18.7114 46.2886C16.173 43.7502 12.0574 43.7502 9.51903 46.2886C6.98063 48.827 6.98063 52.9426 9.51903 55.481C12.0574 58.0194 16.173 58.0194 18.7114 55.481C21.2498 52.9426 21.2498 48.827 18.7114 46.2886ZM16.0078 48.9922C14.9626 47.947 13.2679 47.947 12.2227 48.9922C11.1775 50.0374 11.1775 51.7321 12.2227 52.7773C13.2679 53.8225 14.9626 53.8225 16.0078 52.7773C17.053 51.7321 17.053 50.0374 16.0078 48.9922Z" fill="white"/>
    <path fill-rule="evenodd" clip-rule="evenodd" d="M55.481 9.51903C52.9426 6.98063 48.827 6.98063 46.2886 9.51903C43.7502 12.0574 43.7502 16.173 46.2886 18.7114C48.827 21.2498 52.9426 21.2498 55.481 18.7114C58.0194 16.173 58.0194 12.0574 55.481 9.51903ZM52.7773 12.2227C51.7321 11.1775 50.0375 11.1775 48.9922 12.2227C47.947 13.2679 47.947 14.9626 48.9922 16.0078C50.0375 17.053 51.7321 17.053 52.7773 16.0078C53.8226 14.9626 53.8226 13.2679 52.7773 12.2227Z" fill="white"/>
    <path fill-rule="evenodd" clip-rule="evenodd" d="M32.5 40.5294C36.9345 40.5294 40.5294 36.9345 40.5294 32.5C40.5294 28.0655 36.9345 24.4706 32.5 24.4706C28.0655 24.4706 24.4706 28.0655 24.4706 32.5C24.4706 36.9345 28.0655 40.5294 32.5 40.5294ZM32.5 35.8062C34.326 35.8062 35.8062 34.326 35.8062 32.5C35.8062 30.674 34.326 29.1938 32.5 29.1938C30.674 29.1938 29.1938 30.674 29.1938 32.5C29.1938 34.326 30.674 35.8062 32.5 35.8062Z" fill="white"/>
    <path d="M34.7941 21.4118C34.7941 22.6788 33.767 23.7059 32.5 23.7059C31.233 23.7059 30.2059 22.6788 30.2059 21.4118C30.2059 20.1448 31.233 19.1176 32.5 19.1176C33.767 19.1176 34.7941 20.1448 34.7941 21.4118Z" fill="white"/>
    <path d="M34.7941 16.0588C34.7941 17.3258 33.767 18.3529 32.5 18.3529C31.233 18.3529 30.2059 17.3258 30.2059 16.0588C30.2059 14.7918 31.233 13.7647 32.5 13.7647C33.767 13.7647 34.7941 14.7918 34.7941 16.0588Z" fill="white"/>
    <path d="M34.7941 48.9412C34.7941 50.2082 33.767 51.2353 32.5 51.2353C31.233 51.2353 30.2059 50.2082 30.2059 48.9412C30.2059 47.6742 31.233 46.6471 32.5 46.6471C33.767 46.6471 34.7941 47.6742 34.7941 48.9412Z" fill="white"/>
    <path d="M34.7941 43.5882C34.7941 44.8552 33.767 45.8824 32.5 45.8824C31.233 45.8824 30.2059 44.8552 30.2059 43.5882C30.2059 42.3212 31.233 41.2941 32.5 41.2941C33.767 41.2941 34.7941 42.3212 34.7941 43.5882Z" fill="white"/>
    <path d="M43.5882 34.7941C42.3212 34.7941 41.2941 33.767 41.2941 32.5C41.2941 31.233 42.3212 30.2059 43.5882 30.2059C44.8552 30.2059 45.8824 31.233 45.8824 32.5C45.8824 33.767 44.8552 34.7941 43.5882 34.7941Z" fill="white"/>
    <path d="M48.9412 34.7941C47.6742 34.7941 46.6471 33.767 46.6471 32.5C46.6471 31.233 47.6742 30.2059 48.9412 30.2059C50.2082 30.2059 51.2353 31.233 51.2353 32.5C51.2353 33.767 50.2082 34.7941 48.9412 34.7941Z" fill="white"/>
    <path d="M16.0588 34.7941C14.7918 34.7941 13.7647 33.767 13.7647 32.5C13.7647 31.233 14.7918 30.2059 16.0588 30.2059C17.3258 30.2059 18.3529 31.233 18.3529 32.5C18.3529 33.767 17.3258 34.7941 16.0588 34.7941Z" fill="white"/>
    <path d="M21.4118 34.7941C20.1448 34.7941 19.1176 33.767 19.1176 32.5C19.1176 31.233 20.1448 30.2059 21.4118 30.2059C22.6788 30.2059 23.7059 31.233 23.7059 32.5C23.7059 33.767 22.6788 34.7941 21.4118 34.7941Z" fill="white"/>
    <path d="M38.7184 41.9628C37.8225 41.0668 37.8225 39.6143 38.7184 38.7184C39.6143 37.8225 41.0668 37.8225 41.9628 38.7184C42.8587 39.6143 42.8587 41.0668 41.9628 41.9628C41.0668 42.8587 39.6143 42.8587 38.7184 41.9628Z" fill="white"/>
    <path d="M42.5035 45.7479C41.6076 44.8519 41.6076 43.3994 42.5035 42.5035C43.3994 41.6076 44.8519 41.6076 45.7479 42.5035C46.6438 43.3994 46.6438 44.8519 45.7479 45.7479C44.8519 46.6438 43.3994 46.6438 42.5035 45.7479Z" fill="white"/>
    <path d="M19.2521 22.4965C18.3562 21.6006 18.3562 20.1481 19.2521 19.2521C20.1481 18.3562 21.6006 18.3562 22.4965 19.2521C23.3924 20.1481 23.3924 21.6006 22.4965 22.4965C21.6006 23.3924 20.1481 23.3924 19.2521 22.4965Z" fill="white"/>
    <path d="M23.0372 26.2816C22.1413 25.3857 22.1413 23.9332 23.0372 23.0372C23.9332 22.1413 25.3857 22.1413 26.2816 23.0372C27.1775 23.9332 27.1775 25.3857 26.2816 26.2816C25.3857 27.1775 23.9332 27.1775 23.0372 26.2816Z" fill="white"/>
    <path d="M23.0373 38.7184C23.9332 37.8225 25.3857 37.8225 26.2816 38.7184C27.1775 39.6143 27.1775 41.0668 26.2816 41.9628C25.3857 42.8587 23.9332 42.8587 23.0373 41.9628C22.1413 41.0668 22.1413 39.6143 23.0373 38.7184Z" fill="white"/>
    <path d="M19.2522 42.5035C20.1481 41.6076 21.6006 41.6076 22.4965 42.5035C23.3924 43.3994 23.3924 44.8519 22.4965 45.7479C21.6006 46.6438 20.1481 46.6438 19.2522 45.7479C18.3562 44.8519 18.3562 43.3994 19.2522 42.5035Z" fill="white"/>
    <path d="M42.5035 19.2521C43.3994 18.3562 44.852 18.3562 45.7479 19.2521C46.6438 20.1481 46.6438 21.6006 45.7479 22.4965C44.8519 23.3924 43.3994 23.3924 42.5035 22.4965C41.6076 21.6006 41.6076 20.1481 42.5035 19.2521Z" fill="white"/>
    <path d="M38.7184 23.0372C39.6143 22.1413 41.0668 22.1413 41.9628 23.0372C42.8587 23.9332 42.8587 25.3857 41.9628 26.2816C41.0668 27.1775 39.6143 27.1775 38.7184 26.2816C37.8225 25.3857 37.8225 23.9332 38.7184 23.0372Z" fill="white"/>
</svg>
