<svg width="123" height="48" viewBox="0 0 123 48" fill="none" xmlns="http://www.w3.org/2000/svg">
    <path d="M101.34 35.7743V32.0732H101.872C102.436 32.0732 102.702 31.9398 102.902 31.3397L109.911 12.1008H114.462L121.439 31.3397C121.638 31.9398 121.904 32.0732 122.468 32.0732H123V35.7743H120.409C118.748 35.7743 118.15 35.3408 117.618 33.8404L116.157 29.7059H108.184L106.722 33.8404C106.19 35.3408 105.626 35.7743 103.965 35.7743H101.34ZM109.18 26.1048H115.16L113.133 20.1698C112.702 18.8694 112.203 16.6355 112.203 16.6355H112.137C112.137 16.6355 111.639 18.8694 111.207 20.1698L109.18 26.1048Z" fill="#252627"/>
    <path d="M87.4744 35.7743V15.8019H83.8534C83.3883 15.8019 83.1225 16.0686 83.1225 16.5354V17.9692H79.3021V14.2348C79.3021 12.6677 79.8337 12.1008 81.4283 12.1008H97.8725C99.4671 12.1008 99.9986 12.6677 99.9986 14.2348V17.9692H96.1782V16.5354C96.1782 16.0686 95.9125 15.8019 95.4474 15.8019H91.8263V35.7743H87.4744Z" fill="#252627"/>
    <path d="M58.6566 35.7743V15.8019H56.4972V12.1008H67.2939C71.7123 12.1008 74.8018 15.2017 74.8018 19.803C74.8018 24.4044 71.7123 27.6053 67.2939 27.6053H63.0085V35.7743H58.6566ZM63.0085 23.8709H66.4966C68.955 23.8709 70.3502 22.2704 70.3502 19.803C70.3502 17.369 68.955 15.8019 66.5631 15.8019H63.0085V23.8709Z" fill="#252627"/>
    <path fill-rule="evenodd" clip-rule="evenodd" d="M23.5313 10.2114C26.1305 10.2114 28.2376 8.09659 28.2376 5.48783C28.2376 2.87908 26.1305 0.764259 23.5313 0.764259C20.9321 0.764259 18.825 2.87908 18.825 5.48783C18.825 8.09659 20.9321 10.2114 23.5313 10.2114ZM23.5313 7.43283C24.6015 7.43283 25.4692 6.56203 25.4692 5.48783C25.4692 4.41364 24.6015 3.54283 23.5313 3.54283C22.461 3.54283 21.5934 4.41364 21.5934 5.48783C21.5934 6.56203 22.461 7.43283 23.5313 7.43283Z" fill="#F55751"/>
    <path fill-rule="evenodd" clip-rule="evenodd" d="M23.5313 48C26.1305 48 28.2376 45.8852 28.2376 43.2764C28.2376 40.6677 26.1305 38.5528 23.5313 38.5528C20.9321 38.5528 18.825 40.6677 18.825 43.2764C18.825 45.8852 20.9321 48 23.5313 48ZM23.5313 45.2214C24.6015 45.2214 25.4692 44.3506 25.4692 43.2764C25.4692 42.2022 24.6015 41.3314 23.5313 41.3314C22.461 41.3314 21.5934 42.2022 21.5934 43.2764C21.5934 44.3506 22.461 45.2214 23.5313 45.2214Z" fill="#F55751"/>
    <path fill-rule="evenodd" clip-rule="evenodd" d="M37.6501 24.3821C37.6501 26.9909 39.7571 29.1057 42.3563 29.1057C44.9555 29.1057 47.0626 26.9909 47.0626 24.3821C47.0626 21.7734 44.9555 19.6586 42.3563 19.6586C39.7571 19.6586 37.6501 21.7734 37.6501 24.3821ZM40.4184 24.3821C40.4184 25.4563 41.286 26.3271 42.3563 26.3271C43.4266 26.3271 44.2942 25.4563 44.2942 24.3821C44.2942 23.3079 43.4266 22.4371 42.3563 22.4371C41.286 22.4371 40.4184 23.3079 40.4184 24.3821Z" fill="#F55751"/>
    <path fill-rule="evenodd" clip-rule="evenodd" d="M0 24.3821C-1.13614e-07 26.9909 2.10706 29.1057 4.70626 29.1057C7.30545 29.1057 9.41251 26.9909 9.41251 24.3821C9.41251 21.7734 7.30545 19.6586 4.70626 19.6586C2.10706 19.6586 1.13614e-07 21.7734 0 24.3821ZM2.76839 24.3821C2.76839 25.4563 3.636 26.3271 4.70626 26.3271C5.77651 26.3271 6.64413 25.4563 6.64413 24.3821C6.64413 23.3079 5.77651 22.4371 4.70626 22.4371C3.636 22.4371 2.76839 23.3079 2.76839 24.3821Z" fill="#F55751"/>
    <path fill-rule="evenodd" clip-rule="evenodd" d="M33.5148 34.4023C31.6769 36.247 31.6769 39.2378 33.5148 41.0825C35.3527 42.9272 38.3325 42.9272 40.1704 41.0825C42.0083 39.2378 42.0083 36.247 40.1704 34.4023C38.3325 32.5577 35.3527 32.5577 33.5148 34.4023ZM35.4723 36.3671C34.7155 37.1267 34.7155 38.3582 35.4723 39.1177C36.2291 39.8773 37.4561 39.8773 38.2129 39.1177C38.9697 38.3582 38.9697 37.1267 38.2129 36.3671C37.4561 35.6075 36.2291 35.6075 35.4723 36.3671Z" fill="#F55751"/>
    <path fill-rule="evenodd" clip-rule="evenodd" d="M6.89215 7.68177C5.05425 9.52644 5.05425 12.5172 6.89215 14.3619C8.73006 16.2066 11.7099 16.2066 13.5478 14.3619C15.3857 12.5172 15.3857 9.52644 13.5478 7.68177C11.7099 5.8371 8.73006 5.8371 6.89215 7.68177ZM8.8497 9.64652C8.09291 10.4061 8.09291 11.6376 8.8497 12.3972C9.60648 13.1567 10.8335 13.1567 11.5903 12.3972C12.347 11.6376 12.347 10.4061 11.5903 9.64652C10.8335 8.88695 9.60648 8.88695 8.8497 9.64652Z" fill="#F55751"/>
    <path fill-rule="evenodd" clip-rule="evenodd" d="M13.5478 34.4023C11.7099 32.5577 8.73006 32.5577 6.89216 34.4023C5.05425 36.247 5.05425 39.2378 6.89215 41.0825C8.73006 42.9272 11.7099 42.9272 13.5478 41.0825C15.3857 39.2378 15.3857 36.247 13.5478 34.4023ZM11.5903 36.3671C10.8335 35.6075 9.60649 35.6075 8.8497 36.3671C8.09291 37.1267 8.09291 38.3582 8.8497 39.1177C9.60649 39.8773 10.8335 39.8773 11.5903 39.1177C12.347 38.3582 12.347 37.1267 11.5903 36.3671Z" fill="#F55751"/>
    <path fill-rule="evenodd" clip-rule="evenodd" d="M40.1704 7.68178C38.3325 5.83711 35.3527 5.8371 33.5148 7.68178C31.6769 9.52644 31.6768 12.5172 33.5148 14.3619C35.3527 16.2066 38.3325 16.2066 40.1704 14.3619C42.0083 12.5172 42.0083 9.52645 40.1704 7.68178ZM38.2129 9.64652C37.4561 8.88695 36.2291 8.88695 35.4723 9.64652C34.7155 10.4061 34.7155 11.6376 35.4723 12.3972C36.2291 13.1567 37.4561 13.1567 38.2129 12.3972C38.9697 11.6376 38.9697 10.4061 38.2129 9.64652Z" fill="#F55751"/>
    <path fill-rule="evenodd" clip-rule="evenodd" d="M23.5313 30.2171C26.7421 30.2171 29.3449 27.6047 29.3449 24.3821C29.3449 21.1595 26.7421 18.5471 23.5313 18.5471C20.3205 18.5471 17.7177 21.1595 17.7177 24.3821C17.7177 27.6047 20.3205 30.2171 23.5313 30.2171ZM23.5313 26.7848C24.8534 26.7848 25.9251 25.7091 25.9251 24.3821C25.9251 23.0552 24.8534 21.9795 23.5313 21.9795C22.2092 21.9795 21.1375 23.0552 21.1375 24.3821C21.1375 25.7091 22.2092 26.7848 23.5313 26.7848Z" fill="#F55751"/>
    <path d="M25.1923 16.3243C25.1923 17.245 24.4486 17.9914 23.5313 17.9914C22.6139 17.9914 21.8702 17.245 21.8702 16.3243C21.8702 15.4035 22.6139 14.6571 23.5313 14.6571C24.4486 14.6571 25.1923 15.4035 25.1923 16.3243Z" fill="#F55751"/>
    <path d="M25.1923 12.4343C25.1923 13.355 24.4486 14.1014 23.5313 14.1014C22.6139 14.1014 21.8702 13.355 21.8702 12.4343C21.8702 11.5135 22.6139 10.7671 23.5313 10.7671C24.4486 10.7671 25.1923 11.5135 25.1923 12.4343Z" fill="#F55751"/>
    <path d="M25.1923 36.33C25.1923 37.2507 24.4486 37.9971 23.5313 37.9971C22.6139 37.9971 21.8702 37.2507 21.8702 36.33C21.8702 35.4093 22.6139 34.6628 23.5313 34.6628C24.4486 34.6628 25.1923 35.4093 25.1923 36.33Z" fill="#F55751"/>
    <path d="M25.1923 32.44C25.1923 33.3607 24.4486 34.1071 23.5313 34.1071C22.6139 34.1071 21.8702 33.3607 21.8702 32.44C21.8702 31.5193 22.6139 30.7728 23.5313 30.7728C24.4486 30.7728 25.1923 31.5193 25.1923 32.44Z" fill="#F55751"/>
    <path d="M31.5596 26.0493C30.6422 26.0493 29.8986 25.3029 29.8986 24.3821C29.8986 23.4614 30.6422 22.715 31.5596 22.715C32.477 22.715 33.2206 23.4614 33.2206 24.3821C33.2206 25.3029 32.477 26.0493 31.5596 26.0493Z" fill="#F55751"/>
    <path d="M35.4353 26.0493C34.518 26.0493 33.7743 25.3029 33.7743 24.3821C33.7743 23.4614 34.518 22.715 35.4353 22.715C36.3527 22.715 37.0964 23.4614 37.0964 24.3821C37.0964 25.3029 36.3527 26.0493 35.4353 26.0493Z" fill="#F55751"/>
    <path d="M11.6272 26.0493C10.7099 26.0493 9.96619 25.3029 9.96619 24.3821C9.96619 23.4614 10.7099 22.715 11.6272 22.715C12.5446 22.715 13.2883 23.4614 13.2883 24.3821C13.2883 25.3029 12.5446 26.0493 11.6272 26.0493Z" fill="#F55751"/>
    <path d="M15.503 26.0493C14.5856 26.0493 13.8419 25.3029 13.8419 24.3821C13.8419 23.4614 14.5856 22.715 15.503 22.715C16.4203 22.715 17.164 23.4614 17.164 24.3821C17.164 25.3029 16.4203 26.0493 15.503 26.0493Z" fill="#F55751"/>
    <path d="M28.0336 31.2587C27.385 30.6077 27.385 29.5521 28.0336 28.901C28.6823 28.25 29.734 28.25 30.3827 28.901C31.0314 29.5521 31.0314 30.6077 30.3827 31.2587C29.734 31.9098 28.6823 31.9098 28.0336 31.2587Z" fill="#F55751"/>
    <path d="M30.7742 34.0094C30.1255 33.3583 30.1255 32.3028 30.7742 31.6517C31.4229 31.0006 32.4746 31.0006 33.1232 31.6517C33.7719 32.3028 33.7719 33.3583 33.1232 34.0094C32.4746 34.6604 31.4229 34.6604 30.7742 34.0094Z" fill="#F55751"/>
    <path d="M13.9393 17.1126C13.2906 16.4615 13.2906 15.4059 13.9393 14.7549C14.588 14.1038 15.6397 14.1038 16.2884 14.7549C16.937 15.4059 16.937 16.4615 16.2884 17.1126C15.6397 17.7636 14.588 17.7636 13.9393 17.1126Z" fill="#F55751"/>
    <path d="M16.6799 19.8632C16.0312 19.2121 16.0312 18.1566 16.6799 17.5055C17.3286 16.8545 18.3803 16.8545 19.0289 17.5055C19.6776 18.1566 19.6776 19.2121 19.0289 19.8632C18.3803 20.5143 17.3286 20.5143 16.6799 19.8632Z" fill="#F55751"/>
    <path d="M16.6799 28.901C17.3286 28.25 18.3803 28.25 19.0289 28.901C19.6776 29.5521 19.6776 30.6077 19.0289 31.2587C18.3803 31.9098 17.3286 31.9098 16.6799 31.2587C16.0312 30.6077 16.0312 29.5521 16.6799 28.901Z" fill="#F55751"/>
    <path d="M13.9393 31.6517C14.588 31.0006 15.6397 31.0006 16.2884 31.6517C16.937 32.3028 16.937 33.3583 16.2884 34.0094C15.6397 34.6604 14.588 34.6604 13.9393 34.0094C13.2906 33.3583 13.2906 32.3028 13.9393 31.6517Z" fill="#F55751"/>
    <path d="M30.7742 14.7549C31.4229 14.1038 32.4746 14.1038 33.1233 14.7549C33.7719 15.4059 33.7719 16.4615 33.1233 17.1126C32.4746 17.7636 31.4229 17.7636 30.7742 17.1126C30.1255 16.4615 30.1255 15.4059 30.7742 14.7549Z" fill="#F55751"/>
    <path d="M28.0336 17.5055C28.6823 16.8545 29.734 16.8545 30.3827 17.5055C31.0314 18.1566 31.0314 19.2121 30.3827 19.8632C29.734 20.5143 28.6823 20.5143 28.0336 19.8632C27.385 19.2121 27.385 18.1566 28.0336 17.5055Z" fill="#F55751"/>
</svg>
