<svg width="47" height="47" viewBox="0 0 47 47" fill="none" xmlns="http://www.w3.org/2000/svg">
    <path fill-rule="evenodd" clip-rule="evenodd" d="M23.5 9.4C26.0958 9.4 28.2 7.29574 28.2 4.7C28.2 2.10426 26.0958 0 23.5 0C20.9043 0 18.8 2.10426 18.8 4.7C18.8 7.29574 20.9043 9.4 23.5 9.4ZM23.5 6.63529C24.5688 6.63529 25.4353 5.76883 25.4353 4.7C25.4353 3.63117 24.5688 2.76471 23.5 2.76471C22.4312 2.76471 21.5647 3.63117 21.5647 4.7C21.5647 5.76883 22.4312 6.63529 23.5 6.63529Z" fill="#F55751"/>
    <path fill-rule="evenodd" clip-rule="evenodd" d="M23.5 47C26.0958 47 28.2 44.8957 28.2 42.3C28.2 39.7043 26.0958 37.6 23.5 37.6C20.9043 37.6 18.8 39.7043 18.8 42.3C18.8 44.8957 20.9043 47 23.5 47ZM23.5 44.2353C24.5688 44.2353 25.4353 43.3688 25.4353 42.3C25.4353 41.2312 24.5688 40.3647 23.5 40.3647C22.4312 40.3647 21.5647 41.2312 21.5647 42.3C21.5647 43.3688 22.4312 44.2353 23.5 44.2353Z" fill="#F55751"/>
    <path fill-rule="evenodd" clip-rule="evenodd" d="M37.6 23.5C37.6 26.0957 39.7043 28.2 42.3 28.2C44.8957 28.2 47 26.0957 47 23.5C47 20.9043 44.8957 18.8 42.3 18.8C39.7043 18.8 37.6 20.9043 37.6 23.5ZM40.3647 23.5C40.3647 24.5688 41.2312 25.4353 42.3 25.4353C43.3688 25.4353 44.2353 24.5688 44.2353 23.5C44.2353 22.4312 43.3688 21.5647 42.3 21.5647C41.2312 21.5647 40.3647 22.4312 40.3647 23.5Z" fill="#F55751"/>
    <path fill-rule="evenodd" clip-rule="evenodd" d="M0 23.5C-1.13463e-07 26.0957 2.10426 28.2 4.7 28.2C7.29574 28.2 9.4 26.0957 9.4 23.5C9.4 20.9043 7.29574 18.8 4.7 18.8C2.10426 18.8 1.13463e-07 20.9043 0 23.5ZM2.76471 23.5C2.76471 24.5688 3.63117 25.4353 4.7 25.4353C5.76883 25.4353 6.63529 24.5688 6.63529 23.5C6.63529 22.4312 5.76883 21.5647 4.7 21.5647C3.63117 21.5647 2.76471 22.4312 2.76471 23.5Z" fill="#F55751"/>
    <path fill-rule="evenodd" clip-rule="evenodd" d="M33.4702 33.4702C31.6347 35.3057 31.6347 38.2815 33.4702 40.117C35.3057 41.9525 38.2815 41.9525 40.117 40.117C41.9525 38.2815 41.9525 35.3057 40.117 33.4702C38.2815 31.6347 35.3057 31.6347 33.4702 33.4702ZM35.4251 35.4251C34.6694 36.1809 34.6694 37.4063 35.4251 38.1621C36.1809 38.9178 37.4063 38.9179 38.1621 38.1621C38.9178 37.4063 38.9178 36.1809 38.1621 35.4251C37.4063 34.6694 36.1809 34.6694 35.4251 35.4251Z" fill="#F55751"/>
    <path fill-rule="evenodd" clip-rule="evenodd" d="M6.88299 6.88299C5.04753 8.71845 5.04753 11.6943 6.88299 13.5298C8.71846 15.3653 11.6943 15.3653 13.5298 13.5298C15.3653 11.6943 15.3653 8.71845 13.5298 6.88299C11.6943 5.04753 8.71846 5.04753 6.88299 6.88299ZM8.83793 8.83793C8.08215 9.59371 8.08215 10.8191 8.83793 11.5749C9.59371 12.3306 10.8191 12.3306 11.5749 11.5749C12.3306 10.8191 12.3306 9.59371 11.5749 8.83793C10.8191 8.08215 9.59371 8.08215 8.83793 8.83793Z" fill="#F55751"/>
    <path fill-rule="evenodd" clip-rule="evenodd" d="M13.5298 33.4702C11.6943 31.6347 8.71846 31.6347 6.88299 33.4702C5.04753 35.3057 5.04753 38.2815 6.88299 40.117C8.71846 41.9525 11.6943 41.9525 13.5298 40.117C15.3653 38.2815 15.3653 35.3057 13.5298 33.4702ZM11.5749 35.4251C10.8191 34.6694 9.59372 34.6694 8.83794 35.4251C8.08216 36.1809 8.08216 37.4063 8.83794 38.1621C9.59372 38.9178 10.8191 38.9178 11.5749 38.1621C12.3306 37.4063 12.3306 36.1809 11.5749 35.4251Z" fill="#F55751"/>
    <path fill-rule="evenodd" clip-rule="evenodd" d="M40.117 6.88299C38.2815 5.04753 35.3057 5.04753 33.4702 6.88299C31.6347 8.71846 31.6347 11.6943 33.4702 13.5298C35.3057 15.3653 38.2815 15.3653 40.117 13.5298C41.9525 11.6943 41.9525 8.71846 40.117 6.88299ZM38.1621 8.83794C37.4063 8.08216 36.1809 8.08216 35.4251 8.83794C34.6694 9.59371 34.6694 10.8191 35.4251 11.5749C36.1809 12.3306 37.4063 12.3306 38.1621 11.5749C38.9178 10.8191 38.9178 9.59372 38.1621 8.83794Z" fill="#F55751"/>
    <path fill-rule="evenodd" clip-rule="evenodd" d="M23.5 29.3059C26.7065 29.3059 29.3059 26.7065 29.3059 23.5C29.3059 20.2935 26.7065 17.6941 23.5 17.6941C20.2935 17.6941 17.6941 20.2935 17.6941 23.5C17.6941 26.7065 20.2935 29.3059 23.5 29.3059ZM23.5 25.8907C24.8203 25.8907 25.8907 24.8203 25.8907 23.5C25.8907 22.1797 24.8203 21.1093 23.5 21.1093C22.1797 21.1093 21.1094 22.1797 21.1094 23.5C21.1094 24.8203 22.1797 25.8907 23.5 25.8907Z" fill="#F55751"/>
    <path d="M25.1588 15.4824C25.1588 16.3985 24.4161 17.1412 23.5 17.1412C22.5839 17.1412 21.8412 16.3985 21.8412 15.4824C21.8412 14.5662 22.5839 13.8235 23.5 13.8235C24.4161 13.8235 25.1588 14.5662 25.1588 15.4824Z" fill="#F55751"/>
    <path d="M25.1588 11.6118C25.1588 12.5279 24.4161 13.2706 23.5 13.2706C22.5839 13.2706 21.8412 12.5279 21.8412 11.6118C21.8412 10.6956 22.5839 9.95294 23.5 9.95294C24.4161 9.95294 25.1588 10.6956 25.1588 11.6118Z" fill="#F55751"/>
    <path d="M25.1588 35.3882C25.1588 36.3044 24.4161 37.0471 23.5 37.0471C22.5839 37.0471 21.8412 36.3044 21.8412 35.3882C21.8412 34.4721 22.5839 33.7294 23.5 33.7294C24.4161 33.7294 25.1588 34.4721 25.1588 35.3882Z" fill="#F55751"/>
    <path d="M25.1588 31.5176C25.1588 32.4338 24.4161 33.1765 23.5 33.1765C22.5839 33.1765 21.8412 32.4338 21.8412 31.5176C21.8412 30.6015 22.5839 29.8588 23.5 29.8588C24.4161 29.8588 25.1588 30.6015 25.1588 31.5176Z" fill="#F55751"/>
    <path d="M31.5176 25.1588C30.6015 25.1588 29.8588 24.4161 29.8588 23.5C29.8588 22.5839 30.6015 21.8412 31.5176 21.8412C32.4338 21.8412 33.1765 22.5839 33.1765 23.5C33.1765 24.4161 32.4338 25.1588 31.5176 25.1588Z" fill="#F55751"/>
    <path d="M35.3882 25.1588C34.4721 25.1588 33.7294 24.4161 33.7294 23.5C33.7294 22.5839 34.4721 21.8412 35.3882 21.8412C36.3044 21.8412 37.0471 22.5839 37.0471 23.5C37.0471 24.4161 36.3044 25.1588 35.3882 25.1588Z" fill="#F55751"/>
    <path d="M11.6118 25.1588C10.6956 25.1588 9.95294 24.4161 9.95294 23.5C9.95294 22.5839 10.6956 21.8412 11.6118 21.8412C12.5279 21.8412 13.2706 22.5839 13.2706 23.5C13.2706 24.4161 12.5279 25.1588 11.6118 25.1588Z" fill="#F55751"/>
    <path d="M15.4824 25.1588C14.5662 25.1588 13.8235 24.4161 13.8235 23.5C13.8235 22.5839 14.5662 21.8412 15.4824 21.8412C16.3985 21.8412 17.1412 22.5839 17.1412 23.5C17.1412 24.4161 16.3985 25.1588 15.4824 25.1588Z" fill="#F55751"/>
    <path d="M27.9964 30.3423C27.3486 29.6945 27.3486 28.6442 27.9964 27.9964C28.6442 27.3486 29.6945 27.3486 30.3423 27.9964C30.9901 28.6442 30.9901 29.6945 30.3423 30.3423C29.6945 30.9901 28.6442 30.9901 27.9964 30.3423Z" fill="#F55751"/>
    <path d="M30.7333 33.0792C30.0855 32.4314 30.0855 31.3811 30.7333 30.7333C31.3811 30.0855 32.4314 30.0855 33.0792 30.7333C33.727 31.3811 33.727 32.4314 33.0792 33.0792C32.4314 33.727 31.3811 33.727 30.7333 33.0792Z" fill="#F55751"/>
    <path d="M13.9208 16.2667C13.273 15.6189 13.273 14.5686 13.9208 13.9208C14.5686 13.273 15.6189 13.273 16.2667 13.9208C16.9145 14.5686 16.9145 15.6189 16.2667 16.2667C15.6189 16.9145 14.5686 16.9145 13.9208 16.2667Z" fill="#F55751"/>
    <path d="M16.6577 19.0036C16.0099 18.3558 16.0099 17.3055 16.6577 16.6577C17.3055 16.0099 18.3558 16.0099 19.0036 16.6577C19.6514 17.3055 19.6514 18.3558 19.0036 19.0036C18.3558 19.6514 17.3055 19.6514 16.6577 19.0036Z" fill="#F55751"/>
    <path d="M16.6577 27.9964C17.3055 27.3486 18.3558 27.3486 19.0036 27.9964C19.6515 28.6442 19.6515 29.6945 19.0036 30.3423C18.3558 30.9901 17.3055 30.9901 16.6577 30.3423C16.0099 29.6945 16.0099 28.6442 16.6577 27.9964Z" fill="#F55751"/>
    <path d="M13.9208 30.7333C14.5686 30.0855 15.6189 30.0855 16.2667 30.7333C16.9145 31.3811 16.9145 32.4314 16.2667 33.0792C15.6189 33.727 14.5686 33.727 13.9208 33.0792C13.273 32.4314 13.273 31.3811 13.9208 30.7333Z" fill="#F55751"/>
    <path d="M30.7333 13.9208C31.3811 13.273 32.4314 13.273 33.0792 13.9208C33.727 14.5686 33.727 15.6189 33.0792 16.2667C32.4314 16.9145 31.3811 16.9145 30.7333 16.2667C30.0855 15.6189 30.0855 14.5686 30.7333 13.9208Z" fill="#F55751"/>
    <path d="M27.9964 16.6577C28.6442 16.0099 29.6945 16.0099 30.3423 16.6577C30.9901 17.3055 30.9901 18.3558 30.3423 19.0036C29.6945 19.6514 28.6442 19.6514 27.9964 19.0036C27.3486 18.3558 27.3486 17.3055 27.9964 16.6577Z" fill="#F55751"/>
</svg>
