<svg xmlns="http://www.w3.org/2000/svg" width="32" height="27" viewBox="0 0 32 27" fill="none">
    <path d="M30 3.27509V10.9438M30 10.9438H22.3636M30 10.9438L24.0945 5.3712C22.7267 3.99686 21.0344 2.99289 19.1757 2.45297C17.317 1.91306 15.3523 1.85479 13.4651 2.2836C11.5779 2.71242 9.82956 3.61434 8.38332 4.90522C6.93708 6.19609 5.84003 7.83385 5.19455 9.66566M2 23.7249V16.0562M2 16.0562H9.63636M2 16.0562L7.90545 21.6288C9.27331 23.0031 10.9656 24.0071 12.8243 24.547C14.683 25.0869 16.6477 25.1452 18.5349 24.7164C20.4221 24.2876 22.1704 23.3857 23.6167 22.0948C25.0629 20.8039 26.16 19.1662 26.8055 17.3343" stroke="white" stroke-width="3" stroke-linecap="round" stroke-linejoin="round"/>
</svg>
