<svg xmlns="http://www.w3.org/2000/svg" width="192" height="35" viewBox="0 0 192 35" fill="none">
    <path d="M52.3645 10.0908C52.3645 4.56798 56.8417 0.0908203 62.3645 0.0908203H77.2732C82.7961 0.0908203 87.2732 4.56797 87.2732 10.0908V24.9995C87.2732 30.5224 82.7961 34.9995 77.2732 34.9995H62.3645C56.8417 34.9995 52.3645 30.5224 52.3645 24.9995V10.0908Z" fill="#F2F2F2"/>
    <path d="M66.8985 10.9179C66.8985 11.7563 66.2527 12.4356 65.4556 12.4356C64.6585 12.4356 64.0127 11.7563 64.0127 10.9179C64.0127 10.0801 64.6585 9.4001 65.4556 9.4001C66.2527 9.4001 66.8985 10.0801 66.8985 10.9179ZM66.9102 13.6499H64.0011V23.3636H66.9102V13.6499ZM71.5542 13.6499H68.6637V23.3636H71.5548V18.2645C71.5548 15.4293 75.0625 15.1974 75.0625 18.2645V23.3636H77.9646V17.213C77.9646 12.429 72.7737 12.6032 71.5542 14.9582V13.6499Z" fill="#292426"/>
    <path d="M157.093 10.0908C157.093 4.56798 161.571 0.0908203 167.093 0.0908203H182.002C187.525 0.0908203 192.002 4.56797 192.002 10.0908V24.9995C192.002 30.5224 187.525 34.9995 182.002 34.9995H167.093C161.571 34.9995 157.093 30.5224 157.093 24.9995V10.0908Z" fill="#F2F2F2"/>
    <path d="M179.93 12.9986C177.658 12.8555 172.599 12.8561 170.33 12.9986C167.874 13.1534 167.585 14.523 167.566 18.1278C167.585 21.7263 167.871 23.1016 170.33 23.257C172.599 23.3995 177.658 23.4001 179.93 23.257C182.386 23.1022 182.675 21.7327 182.693 18.1278C182.675 14.5294 182.388 13.154 179.93 12.9986ZM173.239 20.455V15.8006L178.281 18.1237L173.239 20.455Z" fill="#292426"/>
    <path d="M104.729 10.0908C104.729 4.56798 109.206 0.0908203 114.729 0.0908203H129.638C135.161 0.0908203 139.638 4.56797 139.638 10.0908V24.9995C139.638 30.5224 135.161 34.9995 129.638 34.9995H114.729C109.206 34.9995 104.729 30.5224 104.729 24.9995V10.0908Z" fill="#F2F2F2"/>
    <path d="M119.566 15.6064H117.529V18.1276H119.566V25.6912H122.96V18.1276H125.432L125.675 15.6064H122.96V14.5557C122.96 13.9538 123.09 13.7155 123.716 13.7155H125.675V10.5641H123.09C120.649 10.5641 119.566 11.5618 119.566 13.4729V15.6064Z" fill="#292426"/>
    <path d="M0 10.0908C0 4.56798 4.47715 0.0908203 10 0.0908203H24.9087C30.4316 0.0908203 34.9087 4.56797 34.9087 10.0908V24.9995C34.9087 30.5224 30.4316 34.9995 24.9087 34.9995H10C4.47716 34.9995 0 30.5224 0 24.9995V10.0908Z" fill="#F2F2F2"/>
    <path d="M18.0363 10.7634C20.0558 10.7634 20.2953 10.771 21.0932 10.8075C23.143 10.9008 24.1004 11.8734 24.1937 13.908C24.2302 14.7053 24.2372 14.9448 24.2372 16.9643C24.2372 18.9844 24.2296 19.2233 24.1937 20.0206C24.0998 22.0533 23.1449 23.0277 21.0932 23.121C20.2953 23.1576 20.057 23.1651 18.0363 23.1651C16.0168 23.1651 15.7773 23.1576 14.98 23.121C12.9252 23.0271 11.9729 22.0501 11.8796 20.02C11.843 19.2226 11.8355 18.9837 11.8355 16.9636C11.8355 14.9442 11.8436 14.7053 11.8796 13.9073C11.9735 11.8734 12.9284 10.9002 14.98 10.8069C15.778 10.771 16.0168 10.7634 18.0363 10.7634ZM18.0363 9.4001C15.9822 9.4001 15.725 9.40892 14.9182 9.44548C12.1714 9.57154 10.6448 11.0956 10.5188 13.8449C10.4816 14.6524 10.4728 14.9095 10.4728 16.9636C10.4728 19.0178 10.4816 19.2756 10.5181 20.0824C10.6442 22.8292 12.1682 24.3558 14.9176 24.4818C15.725 24.5184 15.9822 24.5272 18.0363 24.5272C20.0904 24.5272 20.3482 24.5184 21.155 24.4818C23.8993 24.3558 25.4297 22.8317 25.5538 20.0824C25.591 19.2756 25.5999 19.0178 25.5999 16.9636C25.5999 14.9095 25.591 14.6524 25.5545 13.8456C25.4309 11.1013 23.905 9.57217 21.1556 9.44611C20.3482 9.40892 20.0904 9.4001 18.0363 9.4001ZM18.0363 13.0798C15.8914 13.0798 14.1524 14.8188 14.1524 16.9636C14.1524 19.1085 15.8914 20.8482 18.0363 20.8482C20.1812 20.8482 21.9202 19.1092 21.9202 16.9636C21.9202 14.8188 20.1812 13.0798 18.0363 13.0798ZM18.0363 19.4848C16.644 19.4848 15.5151 18.3566 15.5151 16.9636C15.5151 15.5713 16.644 14.4425 18.0363 14.4425C19.4286 14.4425 20.5575 15.5713 20.5575 16.9636C20.5575 18.3566 19.4286 19.4848 18.0363 19.4848ZM22.074 12.019C21.5723 12.019 21.1657 12.4255 21.1657 12.9266C21.1657 13.4277 21.5723 13.8342 22.074 13.8342C22.5751 13.8342 22.981 13.4277 22.981 12.9266C22.981 12.4255 22.5751 12.019 22.074 12.019Z" fill="#292426"/>
</svg>
