<svg xmlns="http://www.w3.org/2000/svg" width="109" height="18" viewBox="0 0 109 18" fill="none">
    <path d="M7.99447 0.932632C8.39279 -0.31088 10.1271 -0.310876 10.5254 0.932635L11.7992 4.90932C11.9773 5.46544 12.4882 5.84196 13.0647 5.84196H17.1867C18.4757 5.84196 19.0116 7.51509 17.9688 8.28362L14.634 10.7414C14.1677 11.085 13.9725 11.6943 14.1506 12.2504L15.4244 16.2271C15.8228 17.4706 14.4197 18.5046 13.3769 17.7361L10.042 15.2784C9.57568 14.9347 8.94419 14.9347 8.47784 15.2784L5.14301 17.7361C4.10021 18.5046 2.69713 17.4706 3.09544 16.2271L4.36923 12.2504C4.54736 11.6943 4.35222 11.085 3.88587 10.7414L0.551038 8.28362C-0.491763 7.51509 0.0441691 5.84196 1.33314 5.84196H5.45522C6.03166 5.84196 6.54255 5.46544 6.72068 4.90932L7.99447 0.932632Z" fill="#FFCC00"/>
    <path d="M30.6145 0.932632C31.0128 -0.31088 32.7471 -0.310876 33.1454 0.932635L34.4192 4.90932C34.5974 5.46544 35.1082 5.84196 35.6847 5.84196H39.8068C41.0957 5.84196 41.6317 7.51509 40.5889 8.28362L37.254 10.7414C36.7877 11.085 36.5925 11.6943 36.7707 12.2504L38.0445 16.2271C38.4428 17.4706 37.0397 18.5046 35.9969 17.7361L32.6621 15.2784C32.1957 14.9347 31.5642 14.9347 31.0979 15.2784L27.763 17.7361C26.7202 18.5046 25.3172 17.4706 25.7155 16.2271L26.9893 12.2504C27.1674 11.6943 26.9723 11.085 26.5059 10.7414L23.1711 8.28362C22.1283 7.51509 22.6642 5.84196 23.9532 5.84196H28.0752C28.6517 5.84196 29.1626 5.46544 29.3407 4.90932L30.6145 0.932632Z" fill="#FFCC00"/>
    <path d="M53.2345 0.932632C53.6329 -0.31088 55.3672 -0.310876 55.7655 0.932635L57.0393 4.90932C57.2174 5.46544 57.7283 5.84196 58.3047 5.84196H62.4268C63.7158 5.84196 64.2517 7.51509 63.2089 8.28362L59.8741 10.7414C59.4077 11.085 59.2126 11.6943 59.3907 12.2504L60.6645 16.2271C61.0628 17.4706 59.6597 18.5046 58.6169 17.7361L55.2821 15.2784C54.8158 14.9347 54.1843 14.9347 53.7179 15.2784L50.3831 17.7361C49.3403 18.5046 47.9372 17.4706 48.3355 16.2271L49.6093 12.2504C49.7874 11.6943 49.5923 11.085 49.1259 10.7414L45.7911 8.28362C44.7483 7.51509 45.2842 5.84196 46.5732 5.84196H50.6953C51.2717 5.84196 51.7826 5.46544 51.9607 4.90932L53.2345 0.932632Z" fill="#FFCC00"/>
    <path d="M75.8546 0.932632C76.2529 -0.31088 77.9872 -0.310876 78.3855 0.932635L79.6593 4.90932C79.8374 5.46544 80.3483 5.84196 80.9248 5.84196H85.0468C86.3358 5.84196 86.8717 7.51509 85.8289 8.28362L82.4941 10.7414C82.0277 11.085 81.8326 11.6943 82.0107 12.2504L83.2845 16.2271C83.6828 17.4706 82.2798 18.5046 81.237 17.7361L77.9021 15.2784C77.4358 14.9347 76.8043 14.9347 76.3379 15.2784L73.0031 17.7361C71.9603 18.5046 70.5572 17.4706 70.9555 16.2271L72.2293 12.2504C72.4075 11.6943 72.2123 11.085 71.746 10.7414L68.4111 8.28362C67.3683 7.51509 67.9043 5.84196 69.1932 5.84196H73.3153C73.8918 5.84196 74.4026 5.46544 74.5808 4.90932L75.8546 0.932632Z" fill="#FFCC00"/>
    <path d="M98.4746 0.932632C98.8729 -0.31088 100.607 -0.310876 101.006 0.932635L102.279 4.90932C102.457 5.46544 102.968 5.84196 103.545 5.84196H107.667C108.956 5.84196 109.492 7.51509 108.449 8.28362L105.114 10.7414C104.648 11.085 104.453 11.6943 104.631 12.2504L105.905 16.2271C106.303 17.4706 104.9 18.5046 103.857 17.7361L100.522 15.2784C100.056 14.9347 99.4243 14.9347 98.958 15.2784L95.6231 17.7361C94.5803 18.5046 93.1773 17.4706 93.5756 16.2271L94.8494 12.2504C95.0275 11.6943 94.8324 11.085 94.366 10.7414L91.0312 8.28362C89.9884 7.51509 90.5243 5.84196 91.8133 5.84196H95.9353C96.5118 5.84196 97.0227 5.46544 97.2008 4.90932L98.4746 0.932632Z" fill="#FFCC00"/>
</svg>
