<svg xmlns="http://www.w3.org/2000/svg" width="34" height="29" viewBox="0 0 34 29" fill="none">
    <path d="M23.8182 27V24.2222C23.8182 22.7488 23.2435 21.3357 22.2206 20.2939C21.1977 19.252 19.8103 18.6667 18.3636 18.6667H7.45455C6.00791 18.6667 4.62053 19.252 3.5976 20.2939C2.57467 21.3357 2 22.7488 2 24.2222V27M32 27V24.2222C31.9991 22.9913 31.5968 21.7955 30.8564 20.8227C30.116 19.8498 29.0793 19.155 27.9091 18.8472M22.4545 2.18056C23.6278 2.48653 24.6678 3.18153 25.4104 4.15599C26.1531 5.13044 26.5561 6.32893 26.5561 7.5625C26.5561 8.79607 26.1531 9.99456 25.4104 10.969C24.6678 11.9435 23.6278 12.6385 22.4545 12.9444M18.3636 7.55556C18.3636 10.6238 15.9216 13.1111 12.9091 13.1111C9.89663 13.1111 7.45455 10.6238 7.45455 7.55556C7.45455 4.48731 9.89663 2 12.9091 2C15.9216 2 18.3636 4.48731 18.3636 7.55556Z" stroke="white" stroke-width="3" stroke-linecap="round" stroke-linejoin="round"/>
</svg>
